<?xml version="1.0" encoding="UTF-8"?><svg xmlns="http://www.w3.org/2000/svg" viewBox="0 0 590.22 156.06"><defs><style>.cls-1{stroke:#000;stroke-miterlimit:10;stroke-width:1.27px;}</style></defs><g id="Words"><g id="Black"><path d="M588.25,17.32c-1,.5-2,1-3,.5h-13c-4.5,0-4,0-4,3.5v47.5q0,4.5-4.5,4.5h-10.5q-4,0-4-4V22.82q0-5.5-5.5-5.5h-12c-2,0-3-.5-3-2.5V3.82c0-1,0-2,1-2.5,.5-.5,1.5-.5,2.5-.5h53c1.5,0,3,0,3.5,1.5v1c-.5,3-.5,6.5-.5,9.5,0,2,0,3,0,4.5Z"/><path d="M374.25,.82c.5,1,.5,2.5,.5,4V69.32c0,4,0,4.5-4.5,4s-9,0-13,0c-2.5,0-3.5-.5-3.5-3V3.82c0-1,0-2,.5-3h20Z"/><path d="M588.75,2.82c-1-1.5-2.5-1-4-1h-54.5V.82h57c1,0,1.5,.5,1.5,2Z"/><path d="M272.25,1.32V.82h20v.5c-.5,.5-1.5,1-2.5,1h-14.5c-1,.5-2,0-3-1Z"/><path d="M244.75,.82v.5c-.5,.5-1,.5-1,.5-5,.5-10.5,.5-15.5,0-.5,0-1-.5-1.5-.5V.82h18Z"/><path d="M329.75,1.32h0l17.5-.5v.5c-.5,.5-1.5,1-2.5,1h-12.5c-1,0-1.5,0-2.5-1Z"/><path d="M473.75,.82v.5c-.5,.5-1.5,1-2.5,1h-12.5c-1,0-2-.5-2.5-1V.82h17.5Z"/><path d="M505.25,1.32h0l17-.5v.5c0,.5-.5,.5-1,1-5,.5-10,.5-15.5,0,0-.5-.5-.5-.5-1Z"/><path d="M588.25,17.32c0-4.5,0-9,.5-13v13h-.5Z"/><path d="M226.75,1.82h18c1,.5,.5,2,.5,3v30c0,1,0,2,.5,3,1-.5,1.5-1.5,2-2.5,7-10.5,14.5-20.5,21.5-31,.5-1,1.5-2.5,3-3h20c1.5,1,0,2-.5,2.5-7.5,11-15,22.5-22.5,33.5-1.5,1.5-1.5,4.5,0,6,20,28.5,40,57,60,85.5,5.5,8,11.5,16.5,17,24.5,.5,.5,1,1.5,.5,2h-19.5c-1.5,0-3-.5-4-2l-44-62.5c-7.5-10.5-15-21-22.5-32-1-1.5-2-1.5-3,0l-7.5,12c-.5,1-1,2-.5,3v79h1l22-67c1.5,1,2.5,2.5,3.5,4,4,6,8,12,12.5,17.5,1,1,1,3,.5,4.5-2,5-4,10-6.5,15-1,2-.5,2.5,1.5,2.5h17c1.5,0,2.5,0,3.5,1,3.5,5,7,9.5,10.5,14.5-1,1-2,.5-2.5,.5h-33.5c-4,0-4,.5-6,4-3.5,7.5-1,6-9,6h-30.5c-2.5,0-3-.5-3-3v-23c0-2.5-.5-3-3-3h-23.5c-2.5,0-3.5,.5-3.5,3.5v22q0,3.5-3.5,3.5h-12.5c-2,0-3-.5-3-3V85.32c0-2,.5-2.5,2.5-2.5h14c2,0,2.5,1,2.5,3v20.5c0,2.5,.5,3,3,3h23.5c2.5,0,3-.5,3-3V4.82c.5-.5,.5-2,.5-3Z"/><path d="M329.75,1.32h17.5c.5,1,1,2,.5,3V69.32q0,3.5-4,3.5h-11c-2,.5-4-.5-5-2.5-8.5-12-17.5-24-26-36-.5-.5-.5-1.5-2-1.5v44c-1-.5-2-1.5-2.5-2.5l-14.5-20.5c-1-1.5-1.5-3-1.5-5V30.82c0-1.5,.5-3,1.5-4.5l15.5-23c1.5-2.5,2-2.5,4,0l25,33c.5,1,1.5,2,3,2.5V4.82c-1.5-1-1-2.5-.5-3.5Z"/><path d="M505.25,1.32h17c1,1,1,2,1,3V70.32c0,2.5-1,3.5-3.5,3.5h-12.5c-2.5,0-3.5-1-3.5-3v-21.5c0-4,0-4.5-4-4.5h-22q-3.5,0-3.5,4v21.5q0,4-4,4h-11.5q-3.5,0-3.5-3.5V4.82c0-1-.5-2.5,.5-3.5h17.5c1,1,.5,2,.5,3V24.32c0,2.5,.5,3.5,3,3.5h23.5c2.5,0,3-1,3-3V4.82c1-1,.5-2.5,2-3.5Z"/><path d="M432.75,31.82h14c2,0,3,.5,3,2.5v23c0,1.5-1,3.5-2.5,4.5-11.5,11-28.5,14.5-43.5,9-15.5-5-25-19.5-23.5-38,1.5-16,14-28.5,29.5-31,12-3,24.5,.5,33,9,6,6,6,6.5-1.5,10.5-2,1-4.5,2-6.5,3.5s-2.5,1-3.5-.5c-4.5-6.5-12.5-9-20-6-10,4.5-15,16-10.5,26,4.5,10,16,15,26,10.5,.5,0,.5-.5,1-.5l1.5-.5c1.5-1,2-3,1.5-4.5-.5-2-2-1.5-3-1.5h-10c-2,0-2.5-.5-2.5-2.5v-11c0-2,1-3,3-3l14.5,.5Z"/><path d="M417.75,111.32c1,0,1.5-1,2-2,6-7.5,11.5-15.5,17.5-23,1-2,3.5-3,5.5-3h19c.5,1,0,1.5-.5,2-8,9.5-16,19.5-24.5,29-1.5,1.5-1.5,3.5-.5,5,0,0,0,.5,.5,.5,8,10.5,16.5,21,24.5,32l2.5,3c-1,1-2.5,.5-3.5,.5h-16c-2,.5-4-1-5-2.5-5-7-10-14-14.5-21-.5-1-1-2-2.5-2.5-3.5,2-5.5,6-5,10.5s0,9,0,13c0,2-.5,3-2.5,3h-12.5c-4,0-3.5,0-3.5-3.5V87.32c0-2.5,.5-3.5,3-3h13c2.5,0,3,.5,3,3v22c-.5,.5-1,1,0,2Z"/><path d="M494.25,155.82c-10,.5-19.5-2.5-27.5-8-3-2-3-2.5-1-5.5s4-6,6-9c1-1.5,2-2,3.5-.5,5,4.5,11.5,7.5,18,7.5,3,.5,6,0,9-1.5,2-.5,3-2,3-4s-1.5-3-3-4c-4.5-1.5-9.5-3-14-3.5-6-1-11.5-3.5-16-7-8-8-8-21,0-29,1-1,2.5-2,3.5-3,12-7,24.5-6,37-1,2.5,1,5.5,2.5,7.5,4,1.5,1,2,2,.5,4-2.5,3-4.5,6-6.5,9-1,1.5-2.5,1.5-4,.5-5.5-3.5-12-5.5-18.5-5.5-1.5,0-3.5,.5-5,1-2,1-2.5,3-2,5,.5,1,1,1.5,2,2,3,1.5,6.5,2.5,10,3,5,1,9.5,2.5,14.5,4,7,2.5,12,9,12.5,16.5,1,8.5-3,17-10.5,21.5-5.5,3-12.5,4-19,3.5Z"/><path d="M361.75,155.82h-4c-3,0-5.5-1.5-7-4-8-11.5-16-23-24-34-1.5-2-2-4.5-1-6.5,4-16,14.5-24,30-27,13.5-3,27.5,3,35,15,2,3,2,3.5-1.5,5s-6.5,3-10,5c-1,1-2.5,.5-3-.5,0,0,0-.5-.5-.5-4-7-12.5-10.5-20-7.5-7.5,2.5-13,9.5-13,17.5-1,10.5,6.5,20,17,21h2.5c5.5,0,10.5-3,13-7.5,1.5-2,2.5-2.5,5-1.5s6,3,9,4.5,3.5,2,1.5,5c-6,11-17.5,16.5-29,16Z"/></g></g><g id="Dragons"><g id="Black-2"><path class="cls-1" d="M124.83,24.73c.53-.52,.44-1.41-.2-1.8-3.09-1.9-6.74-3.88-11.1-5.61-4.29-1.7-8.25-2.75-11.63-3.42-.17-.03-.24,.21-.08,.28,.99,.38,2.13,.86,3.37,1.48,2.34,1.17,4.28,2.45,5.81,3.62,1.81,1.37,3.63,2.47,5.83,4.28,1.8,1.47,3.27,2.83,4.38,3.92,.14,.14,.35,.14,.7,.08,.03,0,.06-.02,.08-.04l2.83-2.78Z"/><path class="cls-1" d="M65.69,118.51l2.24-2.31c.35-.36,.92-.4,1.31-.09,3.64,2.82,12.62,8.84,24.85,8.52,12.32-.32,20.65-6.9,25.75-10.87,9.07-7.06,13.66-15.31,15.73-19.73,1.8-3.94,5.67-15.9,6.27-28.04,.04-.82,.14-3.31-.89-3.72-.56-.23-1.36,.2-2.41,.77-.81,.44-1.39,.91-1.7,1.18-.88,.76-1.51,1.6-2,2.26-.76,1.01-.82,1.25-.98,1.22-.6-.09-.51-3.89-.37-8.92,.03-1.22,0-2.16,.1-3.5,.14-1.73,.38-3.17,.59-4.21,.02-.1,.07-.19,.14-.27,.86-.93,6.67-7.21,8.34-9.02,.24-.26,.65-.24,.86,.04,2.29,3.01,4.02,5.72,5.29,7.85,1.06,1.79,2.23,3.78,3.45,6.61,.69,1.6,1.21,3.19,2.15,6.03,6.7,20.27,.33,41.53,.33,41.53-5.52,18.43-17.06,29.39-21.96,33.56-4.35,3.7-19.62,15.7-42.61,16.65-25.47,1.05-43.18-12.2-48.53-16.66-.45-.37-.48-1.04-.07-1.45,1.68-1.69,5.73-5.74,7.35-7.36,.38-.38,1-.39,1.39,0,5.46,5.37,10.93,10.73,16.39,16.1,.38,.37,.99,.38,1.37,0l11.06-10.57c.17-.17,.18-.44,0-.61l-13.45-14.23c-.21-.22-.2-.56,0-.77Z"/><path class="cls-1" d="M78.69,33.87c.7-.66,6.71,2.17,7.86,7.37,.86,3.91-1.28,8.06-2.17,7.96-.34-.04-.42-.68-.86-2.26-1.02-3.69-2.56-7.29-4.12-10.93-.68-1.59-.89-1.97-.71-2.14Zm-30.69,67.45c.91-.93,1.92-2.03,2.81-2.94,.14-.14,.18-.35,.13-.53-1.58-5.05-.97-8.42-.13-10.56,2.03-5.15,8.52-11.3,8.21-14.08-.29-2.59-2.06-2.21-4.01-7.26-.81-2.08-2-5.27-1.26-9.1,.59-3.1,2.29-5.81,2.93-5.74,.72,.08-1.91,7.48,.25,12.92,1.56,3.91,4.15,6.18,7.33,8.91,2.32,1.99,3.56,2.64,15.01,9.17,5.28,3.01,9.59,5.52,11.96,9.53,1.36,2.3,1.93,4.76,1.93,4.76,.57,2.45,0,5.87,.3,5.87s15.92-8.75,15.65-9.06-2.86,.04-4.94-.74c-2.19-.82-3.62-2.08-4.36-2.83,0,0,0,0,0-.01-.88-1.08-1.88-2.49-2.77-4.26-1.21-2.38-1.48-5.86-2.12-6.24s-2.23,.4-3.93,.1c-1.91-.34-3.28-1.16-4-1.67-.01,0-.02-.02-.03-.03-1.21-1.66-2.52-3.68-3.73-6.08-1.49-2.95-3.21-7.6-3.1-7.99s1.67-.77,2.96-.97c2.91-.46,5.23,.54,7.41,1.53,1.93,.87,4.95,2.52,8.03,5.61,.01,.01,.02,.02,.03,.04,.79,1.61,1.59,3.49,2.31,5.62,.73,2.16,1.16,5.75,1.58,5.96s2.49-1.09,4.91-.59c2.33,.49,3.72,1.91,4.17,2.41,0,0,0,.01,.01,.02,.65,1,1.42,2.43,1.96,4.26,.73,2.46,.32,5.71,.62,5.97s4.91-1.38,7.81-4.89c2.52-3.05,3.74-7.28,3.25-7.61s-4.83-1.77-7.84-4.15c-2.97-2.35-4.78-4.9-5.8-6.59,0,0,0-.01-.01-.01-3.41-4.23-5.4-8.11-6.58-10.87-1.7-3.96-2.58-7.63-3.23-10.28-1.02-4.21-.9-5.14-1.88-8.78-.12-.45-1.28-4.7-3.26-9.08-3.45-7.67-8.01-12.89-10.45-15.44-1.77-1.85-4.93-5.12-9.91-8.2-7.27-4.5-14.93-6.43-15.5-5.35-.42,.81,3.56,2.55,5.71,7.5,.76,1.75,1.1,4.34,1.22,5.51,.03,.26-.24,.46-.48,.34-1.72-.81-7.2-3.31-11.15-4.41-3.91-1.09-10.45-2.3-10.45-1.9s3.29,4.54,4.4,8.43c.46,1.61,.74,4.04,.84,5.02,.02,.21-.18,.37-.38,.31-1.36-.4-5.72-1.64-8.77-2.03-2.48-.31-6.18-.31-7.67-.29-.26,0-.39,.3-.23,.5,.86,1.02,2.81,3.46,3.82,5.63,.93,2,1.42,3.84,1.69,5.28,0,.05,0,.1-.04,.13-3.95,3.71-20.02,19.71-22.06,45.93-1.89,24.23,9.32,41.87,13.06,47.09,.21,.29,.58,.32,.83,.06,2.52-2.55,5.25-5.14,7.77-7.69,.21-.21,.21-.56,0-.77-5.73-5.81-11.64-11.86-17.37-17.66-.22-.22-.22-.58,0-.8,3.59-3.7,7.1-7.05,10.7-10.75,.22-.22,.58-.23,.8-.01,4.79,4.65,9.48,9.21,14.27,13.86,.22,.22,.58,.21,.8,0Z"/><path class="cls-1" d="M105.22,49.58c-.15-.6,.03-1.24,.47-1.69l12.93-12.91,8.9-8.89c.19-.19,.42-.33,.67-.42l15.89-5.5c1.74-.6,3.41,1.06,2.83,2.8l-5.17,15.35c-.09,.26-.23,.49-.42,.68l-26.34,26.6c-.79,.79-2.11,.67-2.73-.26-1.29-1.93-2.64-4.23-3.88-6.91-1.51-3.26-2.49-6.29-3.14-8.86Z"/><path class="cls-1" d="M86.11,67.11c.88-1.01,4.48,.54,6.84,2.21,2.03,1.43,4.83,4.13,4.18,5.47-.34,.69-1.49,.79-3.37,.94-1.94,.16-3.12,.26-4.25-.43-1.11-.67-1.6-1.97-2.59-4.58-.8-2.11-1.2-3.16-.81-3.61Z"/><path class="cls-1" d="M71.58,81.71c.16-.16,.4-.21,.61-.11,2.39,1.08,5.2,2.59,8.16,4.68,2.88,2.03,5.18,4.12,6.97,5.97,.21,.21,.21,.55,0,.76-8.36,8.51-16.72,17.02-25.08,25.53-.2,.21-.21,.54,0,.75,4.4,4.64,8.8,9.29,13.19,13.93,.2,.21,.2,.55-.01,.76l-7.19,7.11c-.21,.21-.55,.21-.76,0l-16.9-16.83c-.21-.21-.55-.21-.76,0l-15.79,15.56c-.21,.21-.56,.21-.77,0l-5.86-5.99c-.21-.21-.21-.55,0-.76l15.82-15.91c.21-.21,.21-.56,0-.77-5.85-5.8-11.71-11.6-17.56-17.41-.21-.21-.21-.56,0-.77l6.91-6.9c.21-.21,.55-.21,.76,0,4.74,4.63,9.48,9.27,14.23,13.9,.21,.21,.55,.21,.76,0,7.76-7.84,15.52-15.67,23.28-23.51Z"/></g></g></svg>