<?xml version="1.0" encoding="UTF-8"?><svg id="Black" xmlns="http://www.w3.org/2000/svg" viewBox="0 0 1059.52 1140.12"><defs><style>.cls-1{stroke:#000;stroke-miterlimit:10;stroke-width:9.38px;}</style></defs><path class="cls-1" d="M803.85,174.9c3.96-3.88,3.24-10.46-1.48-13.37-22.87-14.08-49.92-28.74-82.19-41.53-31.77-12.58-61.13-20.39-86.15-25.32-1.28-.25-1.8,1.58-.58,2.05,7.34,2.79,15.8,6.39,24.96,10.96,17.35,8.67,31.68,18.14,43.07,26.78,13.38,10.15,26.87,18.32,43.19,31.68,13.35,10.92,24.21,20.98,32.42,29,1.05,1.03,2.62,1,5.21,.6,.22-.03,.43-.14,.59-.29l20.98-20.56Z"/><path class="cls-1" d="M365.78,869.58l16.59-17.12c2.59-2.68,6.78-2.97,9.72-.68,26.93,20.92,93.5,65.46,184.05,63.11,91.24-2.37,152.95-51.11,190.71-80.5,67.19-52.3,101.18-113.37,116.53-146.12,13.35-29.21,42.03-117.8,46.43-207.68,.3-6.07,1.04-24.49-6.6-27.59-4.17-1.69-10.04,1.49-17.84,5.72-5.98,3.24-10.26,6.71-12.59,8.74-6.48,5.66-11.15,11.83-14.8,16.71-5.61,7.5-6.1,9.23-7.24,9.06-4.48-.68-3.78-28.83-2.72-66.1,.25-9.01-.04-15.97,.74-25.94,1-12.8,2.79-23.46,4.34-31.16,.15-.75,.5-1.43,1.02-1.99,6.37-6.88,49.39-53.37,61.81-66.8,1.76-1.9,4.81-1.74,6.37,.32,16.96,22.33,29.8,42.36,39.15,58.17,7.83,13.23,16.53,28.03,25.53,48.93,5.1,11.85,8.95,23.61,15.91,44.69,49.59,150.13,2.42,307.64,2.42,307.64-40.88,136.5-126.4,217.73-162.67,248.61-32.19,27.4-145.33,116.31-315.61,123.33-188.7,7.77-319.86-90.4-359.5-123.41-3.3-2.75-3.53-7.73-.5-10.77,12.48-12.5,42.43-42.49,54.45-54.52,2.83-2.84,7.42-2.86,10.28-.05,40.48,39.74,80.95,79.48,121.43,119.22,2.81,2.76,7.31,2.79,10.17,.07l81.92-78.26c1.28-1.22,1.31-3.26,.07-4.52l-99.61-105.38c-1.52-1.61-1.51-4.13,.04-5.72Z"/><path class="cls-1" d="M462.09,242.62c5.16-4.89,49.72,16.08,58.19,54.58,6.37,28.94-9.45,59.68-16.06,58.97-2.52-.27-3.11-5.05-6.35-16.76-7.58-27.36-18.98-54-30.51-80.96-5.04-11.79-6.6-14.56-5.26-15.83Zm-227.31,499.6c6.71-6.89,14.21-15.02,20.81-21.75,1.02-1.04,1.37-2.56,.93-3.95-11.72-37.39-7.2-62.36-.93-78.25,15.04-38.13,63.12-83.69,60.83-104.31-2.13-19.18-15.26-16.35-29.73-53.75-5.97-15.42-14.78-39.06-9.36-67.4,4.39-22.96,16.96-43.02,21.69-42.5,5.33,.58-14.17,55.4,1.86,95.71,11.53,29,30.7,45.78,54.33,65.97,17.21,14.71,26.34,19.54,111.22,67.93,39.08,22.28,71.02,40.89,88.59,70.62,10.06,17.02,14.32,35.28,14.32,35.28,4.23,18.13,.01,43.49,2.2,43.49s117.9-64.81,115.91-67.12-21.19,.3-36.62-5.46c-16.19-6.04-26.83-15.39-32.31-20.95-.03-.03-.05-.05-.07-.08-6.54-7.99-13.92-18.47-20.54-31.55-8.94-17.66-11-43.38-15.73-46.22s-16.53,2.94-29.09,.72c-14.15-2.51-24.28-8.61-29.63-12.4-.1-.07-.18-.15-.24-.24-8.99-12.27-18.66-27.27-27.66-45.07-11.05-21.85-23.79-56.28-22.95-59.17s12.39-5.67,21.92-7.19c21.58-3.43,38.73,4.03,54.88,11.31,14.31,6.45,36.69,18.68,59.45,41.55,.08,.09,.16,.18,.21,.29,5.85,11.93,11.81,25.83,17.14,41.6,5.41,16.02,8.58,42.62,11.73,44.11s18.46-8.11,36.36-4.34c17.27,3.63,27.56,14.15,30.89,17.87,.04,.04,.07,.09,.1,.13,4.8,7.42,10.52,18,14.53,31.55,5.39,18.2,2.34,42.26,4.61,44.26s36.37-10.26,57.83-36.2c18.7-22.6,27.68-53.96,24.09-56.35s-35.81-13.14-58.09-30.75c-22-17.39-35.44-36.3-42.99-48.84-.02-.04-.05-.08-.08-.11-25.23-31.31-40-60.08-48.76-80.54-12.56-29.35-19.14-56.54-23.9-76.18-7.55-31.17-6.65-38.1-13.9-65.02-.89-3.3-9.51-34.85-24.12-67.27-25.58-56.78-59.37-95.46-77.42-114.37-13.1-13.72-36.54-37.95-73.38-60.75C389.79,13.15,333.05-1.16,328.89,6.87c-3.13,6.03,26.38,18.88,42.32,55.54,5.64,12.97,8.16,32.18,9.05,40.78,.2,1.96-1.8,3.38-3.59,2.55-12.75-5.98-53.34-24.54-82.59-32.69-28.97-8.07-77.39-17.02-77.39-14.1s24.34,33.6,32.58,62.48c3.41,11.94,5.47,29.9,6.2,37.2,.16,1.55-1.3,2.76-2.8,2.32-10.06-2.96-42.4-12.18-64.98-15.03-18.38-2.32-45.81-2.27-56.81-2.14-1.9,.02-2.92,2.24-1.7,3.7,6.35,7.55,20.85,25.6,28.33,41.67,6.9,14.81,10.51,28.43,12.48,39.14,.07,.36-.05,.71-.32,.96-29.26,27.52-148.31,145.99-163.43,340.26-13.96,179.47,69.05,310.16,96.76,348.84,1.53,2.14,4.27,2.34,6.12,.47,18.64-18.89,38.91-38.08,57.52-56.97,1.57-1.59,1.56-4.14,0-5.73-42.46-43-86.19-87.82-128.65-130.82-1.62-1.64-1.63-4.28-.02-5.94,26.63-27.43,52.61-52.21,79.24-79.65,1.61-1.66,4.28-1.7,5.94-.09,35.46,34.45,70.23,68.22,105.69,102.67,1.65,1.6,4.33,1.58,5.93-.07Z"/><path class="cls-1" d="M658.58,358.97c-1.13-4.48,.19-9.22,3.46-12.49l95.76-95.67,65.92-65.85c1.41-1.4,3.11-2.47,4.99-3.12l117.68-40.73c12.9-4.46,25.3,7.83,20.94,20.76l-38.27,113.71c-.64,1.9-1.71,3.63-3.12,5.05l-195.14,197c-5.83,5.89-15.61,4.99-20.22-1.89-9.56-14.28-19.56-31.33-28.74-51.17-11.18-24.15-18.44-46.58-23.25-65.61Z"/><path class="cls-1" d="M517.06,488.82c6.5-7.5,33.17,4.01,50.66,16.35,15.04,10.61,35.77,30.62,30.98,40.49-2.49,5.13-11.05,5.84-25,6.98-14.36,1.18-23.13,1.9-31.52-3.19-8.19-4.97-11.84-14.62-19.15-33.91-5.91-15.6-8.86-23.4-5.98-26.72Z"/><path class="cls-1" d="M409.38,596.99c1.19-1.2,2.99-1.54,4.52-.84,17.69,8.02,38.55,19.17,60.48,34.69,21.3,15.07,38.38,30.56,51.66,44.25,1.53,1.58,1.52,4.08-.02,5.65-61.92,63.03-123.84,126.06-185.76,189.09-1.51,1.54-1.54,4.01-.05,5.57,32.58,34.4,65.16,68.81,97.74,103.21,1.5,1.59,1.46,4.08-.09,5.62l-53.27,52.7c-1.57,1.55-4.09,1.55-5.66,0l-125.17-124.64c-1.56-1.55-4.08-1.56-5.65-.01l-116.99,115.28c-1.58,1.56-4.13,1.54-5.69-.05l-43.39-44.37c-1.54-1.57-1.52-4.08,.02-5.64l117.17-117.84c1.57-1.57,1.56-4.12-.02-5.68-43.37-42.98-86.73-85.96-130.1-128.94-1.58-1.57-1.59-4.12-.01-5.69l51.15-51.11c1.56-1.55,4.07-1.57,5.64-.03,35.13,34.33,70.26,68.65,105.38,102.98,1.58,1.54,4.11,1.52,5.66-.05,57.48-58.04,114.96-116.09,172.44-174.13Z"/></svg>